fontCallback.success({"glyphs":{"S":{"x_min":53.078125,"x_max":611.140625,"ha":668,"o":"m 63 13 b 280 -15 134 -2 205 -15 b 611 254 451 -15 611 52 b 412 518 611 398 522 454 l 325 566 b 168 737 259 604 168 648 b 345 883 168 841 255 883 b 551 841 415 883 487 868 l 551 948 b 355 973 485 961 421 973 b 53 727 202 973 53 906 b 255 479 53 588 152 537 l 338 431 b 495 238 419 383 495 345 b 292 75 495 122 393 75 b 63 125 212 75 136 93 l 63 13 "},"¦":{"x_min":129.3125,"x_max":221.859375,"ha":358,"o":"m 221 558 l 221 1056 l 129 1056 l 129 558 l 221 558 m 221 -188 l 221 309 l 129 309 l 129 -188 l 221 -188 "},"/":{"x_min":24.75,"x_max":380,"ha":411,"o":"m 121 -188 l 380 1056 l 282 1056 l 24 -188 l 121 -188 "},"y":{"x_min":8,"x_max":573,"ha":592,"o":"m 259 -268 l 573 661 l 473 661 l 299 141 l 296 141 l 107 661 l 8 661 l 255 0 l 164 -268 l 259 -268 "},"Á":{"x_min":12,"x_max":744,"ha":772,"o":"m 744 0 l 440 958 l 311 958 l 12 0 l 118 0 l 209 295 l 544 295 l 637 0 l 744 0 m 515 386 l 237 386 l 375 859 l 377 859 l 515 386 m 419 1073 l 511 1259 l 391 1259 l 334 1073 l 419 1073 "},"g":{"x_min":61.25,"x_max":547.171875,"ha":668,"o":"m 454 9 b 258 -209 454 -130 408 -209 b 96 -170 200 -209 149 -197 l 96 -266 b 272 -288 156 -279 208 -288 b 547 -1 458 -288 547 -190 l 547 661 l 454 661 l 454 552 l 451 552 b 283 676 430 630 360 676 b 61 326 104 676 61 469 b 280 0 61 177 102 0 b 451 126 360 0 426 47 l 454 126 l 454 9 m 299 79 b 167 325 183 79 167 238 b 302 597 167 411 182 597 b 454 343 417 597 454 434 b 299 79 454 248 417 79 "},"²":{"x_min":55.8125,"x_max":412.421875,"ha":489,"o":"m 412 556 l 412 623 l 160 623 b 232 693 183 647 209 670 b 404 998 308 770 404 883 b 236 1168 404 1102 337 1168 b 55 1016 144 1168 59 1118 l 140 1016 b 232 1101 140 1073 181 1101 b 322 1006 288 1101 322 1062 b 57 622 322 877 151 701 l 57 556 l 412 556 "},"ë":{"x_min":65.4375,"x_max":544.546875,"ha":617,"o":"m 529 81 b 401 63 486 70 446 63 b 171 354 242 63 171 209 l 171 393 l 544 393 l 544 425 b 318 676 544 572 468 676 b 65 352 128 676 65 525 b 381 -15 65 137 156 -15 b 529 4 431 -15 481 -11 l 529 81 m 178 472 b 314 597 193 545 236 597 b 438 472 385 597 438 545 l 178 472 m 483 791 l 483 913 l 360 913 l 360 791 l 483 791 m 243 791 l 243 913 l 121 913 l 121 791 l 243 791 "},"Î":{"x_min":7,"x_max":347,"ha":360,"o":"m 228 0 l 228 958 l 122 958 l 122 0 l 228 0 m 347 1073 l 227 1259 l 126 1259 l 7 1073 l 89 1073 l 178 1188 l 264 1073 l 347 1073 "},"e":{"x_min":65.328125,"x_max":544.4375,"ha":617,"o":"m 529 81 b 401 63 485 70 446 63 b 171 354 242 63 171 209 l 171 393 l 544 393 l 544 425 b 318 676 544 572 468 676 b 65 352 127 676 65 525 b 381 -15 65 137 156 -15 b 529 4 431 -15 481 -11 l 529 81 m 178 472 b 314 597 193 545 236 597 b 438 472 385 597 438 545 l 178 472 "},"Ã":{"x_min":12,"x_max":744,"ha":772,"o":"m 744 0 l 440 958 l 311 958 l 12 0 l 118 0 l 209 295 l 544 295 l 637 0 l 744 0 m 515 386 l 237 386 l 375 859 l 378 859 l 515 386 m 482 1222 b 454 1156 482 1200 484 1156 b 293 1231 416 1156 348 1231 b 216 1073 222 1231 216 1125 l 273 1073 b 301 1141 273 1090 280 1141 b 461 1070 329 1141 399 1070 b 539 1222 535 1070 539 1166 l 482 1222 "},"J":{"x_min":0,"x_max":377.03125,"ha":489,"o":"m 270 219 b 123 75 270 119 216 75 b 0 98 84 75 38 83 l 0 0 b 117 -15 39 -6 74 -15 b 377 208 274 -15 377 36 l 377 958 l 270 958 l 270 219 "},"»":{"x_min":59,"x_max":436,"ha":489,"o":"m 335 81 l 436 344 l 335 600 l 237 600 l 321 344 l 237 81 l 335 81 m 156 81 l 256 344 l 156 600 l 59 600 l 143 344 l 59 81 l 156 81 "},"©":{"x_min":20.421875,"x_max":660.140625,"ha":694,"o":"m 660 647 b 340 973 660 826 515 973 b 20 647 164 973 20 826 b 340 320 20 466 164 320 b 660 647 517 320 660 466 m 612 647 b 340 369 612 495 488 369 b 68 647 191 369 68 495 b 340 925 68 798 191 925 b 612 647 488 925 612 798 m 450 565 b 351 523 417 536 396 523 b 230 652 281 523 230 581 b 356 781 230 723 287 781 b 450 738 394 781 423 762 l 485 784 b 356 838 446 818 411 838 b 170 652 255 838 170 756 b 356 466 170 548 255 466 b 485 520 411 466 447 481 l 450 565 "},"ò":{"x_min":62.328125,"x_max":593.21875,"ha":668,"o":"m 326 -15 b 593 329 529 -15 593 148 b 326 676 593 506 529 676 b 62 329 124 676 62 506 b 326 -15 62 150 124 -15 m 326 63 b 168 330 191 63 168 225 b 326 597 168 436 191 597 b 487 330 461 597 487 437 b 326 63 487 223 462 63 m 370 776 l 312 962 l 193 962 l 284 776 l 370 776 "},"^":{"x_min":161,"x_max":621,"ha":797,"o":"m 621 462 l 433 895 l 348 895 l 161 462 l 245 462 l 391 802 l 536 462 l 621 462 "},"«":{"x_min":44,"x_max":421,"ha":489,"o":"m 421 81 l 336 338 l 421 600 l 323 600 l 222 338 l 323 81 l 421 81 m 242 81 l 156 338 l 242 600 l 144 600 l 44 338 l 144 81 l 242 81 "},"D":{"x_min":115.6875,"x_max":711.859375,"ha":797,"o":"m 292 0 b 488 26 357 0 424 4 b 711 481 679 93 711 300 b 326 958 711 758 628 958 l 115 958 l 115 0 l 292 0 m 221 90 l 221 868 l 281 868 b 435 847 334 868 386 865 b 596 480 582 791 596 616 b 453 116 596 352 583 179 b 294 90 404 94 347 90 l 221 90 "},"ÿ":{"x_min":8,"x_max":573,"ha":592,"o":"m 259 -268 l 573 661 l 473 661 l 299 141 l 296 141 l 107 661 l 8 661 l 255 0 l 164 -268 l 259 -268 m 470 791 l 470 913 l 348 913 l 348 791 l 470 791 m 231 791 l 231 913 l 108 913 l 108 791 l 231 791 "},"í":{"x_min":118.328125,"x_max":298,"ha":335,"o":"m 210 0 l 210 661 l 118 661 l 118 0 l 210 0 m 206 776 l 298 962 l 178 962 l 121 776 l 206 776 "},"w":{"x_min":57,"x_max":875,"ha":951,"o":"m 723 0 l 875 661 l 782 661 l 665 147 l 662 147 l 506 661 l 425 661 l 270 147 l 267 147 l 149 661 l 57 661 l 213 0 l 314 0 l 465 506 l 468 506 l 620 0 l 723 0 "},"$":{"x_min":78.9375,"x_max":654.703125,"ha":746,"o":"m 392 -131 l 392 -14 b 654 237 543 -10 654 76 b 392 497 654 408 524 453 l 392 864 b 517 727 462 852 517 802 l 638 727 b 392 927 638 848 498 927 l 392 1030 l 330 1030 l 330 927 b 243 909 302 927 272 920 b 91 698 153 872 91 802 b 231 475 91 589 132 518 b 330 443 264 459 298 453 l 330 49 b 200 187 258 60 200 110 l 78 187 b 330 -14 96 48 200 -10 l 330 -131 l 392 -131 m 330 519 b 206 690 250 548 206 602 b 330 864 206 765 247 857 l 330 519 m 392 419 b 539 228 479 382 539 330 b 392 49 539 140 483 55 l 392 419 "},"\\":{"x_min":25,"x_max":380,"ha":411,"o":"m 380 -188 l 121 1056 l 25 1056 l 283 -188 l 380 -188 "},"Ì":{"x_min":42,"x_max":228.53125,"ha":360,"o":"m 228 0 l 228 958 l 122 958 l 122 0 l 228 0 m 219 1073 l 161 1259 l 42 1259 l 133 1073 l 219 1073 "},"µ":{"x_min":108.890625,"x_max":653.328125,"ha":726,"o":"m 582 661 l 490 661 l 490 357 b 334 64 490 211 451 64 b 201 279 238 64 201 161 l 201 661 l 108 661 l 108 -297 l 201 -297 b 197 64 198 -176 197 -56 b 332 -15 216 25 270 -15 b 500 115 424 -15 479 39 b 620 -11 507 20 552 -11 b 653 -9 632 -11 638 -11 l 653 69 b 582 157 597 69 582 93 l 582 661 "},"Ç":{"x_min":69.421875,"x_max":714.578125,"ha":746,"o":"m 280 -297 b 366 -315 307 -309 334 -315 b 499 -199 436 -315 499 -277 b 385 -80 499 -126 455 -80 l 364 -80 l 381 -12 b 430 -15 396 -13 412 -15 b 679 41 529 -15 590 4 l 679 154 b 455 75 615 103 537 75 b 185 491 234 75 185 311 b 423 883 185 655 217 883 b 594 697 532 883 594 804 l 714 697 b 423 973 714 873 589 973 b 69 497 149 973 69 736 b 325 -1 69 290 129 59 l 298 -128 b 423 -195 347 -128 423 -122 b 357 -259 423 -231 393 -259 b 280 -226 332 -259 298 -244 l 280 -297 "},"-":{"x_min":70.78125,"x_max":484.5625,"ha":565,"o":"m 484 298 l 484 393 l 70 393 l 70 298 l 484 298 "},"Q":{"x_min":69.421875,"x_max":819.390625,"ha":849,"o":"m 819 0 l 819 93 l 626 80 l 623 83 b 748 480 728 151 748 369 b 415 973 748 709 688 973 b 69 480 134 973 69 719 b 409 0 69 256 145 0 l 819 0 m 408 90 b 185 481 217 90 185 333 b 415 883 185 640 209 883 b 632 481 612 883 632 631 b 408 90 632 315 623 90 "},"M":{"x_min":115.6875,"x_max":969.109375,"ha":1106,"o":"m 969 0 l 969 958 l 811 958 l 544 143 l 541 143 l 274 958 l 115 958 l 115 0 l 210 0 l 210 843 l 213 843 l 490 0 l 594 0 l 871 843 l 873 843 l 873 0 l 969 0 "},"C":{"x_min":69.421875,"x_max":714.578125,"ha":746,"o":"m 679 154 b 455 75 615 102 537 75 b 185 491 234 75 185 311 b 423 883 185 655 217 883 b 594 697 532 883 594 804 l 714 697 b 423 973 714 873 589 973 b 69 497 149 973 69 736 b 430 -15 69 258 148 -15 b 679 41 529 -15 590 4 l 679 154 "},"!":{"x_min":172.859375,"x_max":306.25,"ha":386,"o":"m 285 259 l 295 958 l 183 958 l 193 259 l 285 259 m 306 0 l 306 136 l 172 136 l 172 0 l 306 0 "},"ç":{"x_min":62.609375,"x_max":548.53125,"ha":592,"o":"m 204 -297 b 289 -315 231 -309 258 -315 b 423 -199 360 -315 423 -277 b 308 -80 423 -126 379 -80 l 288 -80 l 306 -6 b 396 -14 333 -11 363 -14 b 530 3 443 -14 485 -8 l 530 78 b 426 64 498 67 462 64 b 168 367 242 64 168 196 b 322 598 168 466 204 598 b 438 460 404 598 438 538 l 548 460 b 326 677 548 603 462 677 b 62 346 127 677 62 527 b 251 10 62 180 125 59 l 221 -128 b 347 -195 269 -128 347 -122 b 281 -259 347 -231 317 -259 b 204 -226 255 -259 221 -244 l 204 -297 "},"È":{"x_min":115.4375,"x_max":582.359375,"ha":643,"o":"m 582 0 l 582 90 l 221 90 l 221 456 l 553 456 l 553 547 l 221 547 l 221 868 l 570 868 l 570 958 l 115 958 l 115 0 l 582 0 m 385 1073 l 327 1259 l 208 1259 l 299 1073 l 385 1073 "},"{":{"x_min":23.140625,"x_max":367.5,"ha":410,"o":"m 125 436 b 259 633 201 459 259 501 b 254 845 259 704 254 776 b 367 995 254 930 296 988 l 367 1063 b 148 831 198 1056 148 943 b 152 622 148 762 156 702 b 23 468 147 498 91 477 l 23 401 b 152 247 91 391 147 370 b 148 37 156 166 148 106 b 367 -194 148 -73 202 -187 l 367 -123 b 254 25 296 -116 254 -59 b 259 236 254 94 259 165 b 125 436 259 368 198 412 "},"X":{"x_min":0,"x_max":706,"ha":721,"o":"m 706 0 l 410 502 l 676 958 l 560 958 l 353 600 l 144 958 l 28 958 l 295 502 l 0 0 l 115 0 l 353 402 l 590 0 l 706 0 "},"ô":{"x_min":62.71875,"x_max":593.15625,"ha":668,"o":"m 326 -15 b 593 329 529 -15 593 148 b 326 676 593 506 529 676 b 62 329 125 676 62 506 b 326 -15 62 150 125 -15 m 326 63 b 168 330 191 63 168 225 b 326 597 168 436 191 597 b 487 330 461 597 487 437 b 326 63 487 223 462 63 m 497 776 l 378 962 l 277 962 l 158 776 l 240 776 l 329 891 l 414 776 l 497 776 "},"¼":{"x_min":121.140625,"x_max":1090.25,"ha":1132,"o":"m 990 0 l 990 166 l 1090 166 l 1090 233 l 990 233 l 990 601 l 909 601 l 673 229 l 673 166 l 914 166 l 914 0 l 990 0 m 451 0 l 735 880 l 657 880 l 374 0 l 451 0 m 307 280 l 307 880 l 245 880 l 121 802 l 121 722 l 231 797 l 231 280 l 307 280 m 914 233 l 752 233 l 911 501 l 914 501 l 914 233 "},"#":{"x_min":79,"x_max":704,"ha":797,"o":"m 420 0 l 497 297 l 631 297 l 652 373 l 516 373 l 550 505 l 683 505 l 704 581 l 569 581 l 646 880 l 558 880 l 480 581 l 366 581 l 442 880 l 354 880 l 277 581 l 151 581 l 130 505 l 258 505 l 226 373 l 98 373 l 79 297 l 207 297 l 132 0 l 220 0 l 295 297 l 408 297 l 333 0 l 420 0 m 428 373 l 314 373 l 347 505 l 461 505 l 428 373 "},"Ê":{"x_min":116.03125,"x_max":582.609375,"ha":643,"o":"m 582 0 l 582 90 l 222 90 l 222 456 l 554 456 l 554 547 l 222 547 l 222 868 l 570 868 l 570 958 l 116 958 l 116 0 l 582 0 m 520 1073 l 400 1259 l 299 1259 l 180 1073 l 262 1073 l 351 1188 l 437 1073 l 520 1073 "},")":{"x_min":36.75,"x_max":283.203125,"ha":386,"o":"m 36 -199 b 283 432 295 -146 283 227 b 36 1066 283 643 294 1004 l 36 1003 b 172 432 187 927 172 578 b 36 -136 172 287 186 -57 l 36 -199 "},"Å":{"x_min":12,"x_max":744,"ha":772,"o":"m 744 0 l 440 958 l 311 958 l 12 0 l 118 0 l 209 295 l 544 295 l 637 0 l 744 0 m 515 386 l 237 386 l 375 859 l 378 859 l 515 386 m 495 1170 b 379 1288 495 1234 443 1288 b 260 1170 315 1288 260 1234 b 378 1051 260 1105 314 1051 b 495 1170 440 1051 495 1105 m 436 1170 b 378 1111 436 1137 410 1111 b 319 1170 345 1111 319 1137 b 378 1229 319 1204 345 1229 b 436 1170 409 1229 436 1202 "},"ø":{"x_min":62.859375,"x_max":593.03125,"ha":668,"o":"m 136 -72 l 192 23 b 326 -15 230 -8 279 -15 b 593 329 529 -15 593 148 b 510 598 593 424 569 522 l 568 698 l 519 728 l 465 635 b 326 676 423 663 375 676 b 62 319 125 676 62 492 b 147 61 62 229 86 127 l 87 -41 l 136 -72 m 200 150 b 169 330 174 205 169 270 b 326 596 169 435 192 596 b 424 559 359 596 405 590 l 200 150 m 457 508 b 487 330 482 448 487 394 b 326 64 487 223 462 64 b 232 100 288 64 260 72 l 457 508 "},"â":{"x_min":56.53125,"x_max":521.75,"ha":643,"o":"m 521 0 l 521 463 b 304 676 521 612 451 676 b 71 491 187 676 75 623 l 174 491 b 306 597 185 570 229 597 b 429 393 434 597 429 491 l 429 379 b 56 169 225 379 56 316 b 230 -15 56 56 117 -15 b 429 87 302 -15 393 18 l 431 87 l 431 0 l 521 0 m 429 300 b 404 166 429 244 426 215 b 253 63 378 106 316 63 b 162 159 199 63 162 104 b 374 300 162 265 293 300 l 429 300 m 485 776 l 365 962 l 264 962 l 145 776 l 227 776 l 316 891 l 402 776 l 485 776 "},"}":{"x_min":34.03125,"x_max":378.390625,"ha":415,"o":"m 276 436 b 141 236 202 412 141 368 b 147 25 141 165 147 94 b 34 -123 147 -59 104 -116 l 34 -194 b 253 37 198 -187 253 -73 b 249 247 253 106 245 166 b 378 401 254 370 310 391 l 378 468 b 249 622 310 477 254 498 b 253 831 245 702 253 762 b 34 1063 253 943 202 1056 l 34 995 b 147 845 104 988 147 930 b 141 633 147 776 141 704 b 276 436 141 501 200 459 "},"Ä":{"x_min":12,"x_max":744,"ha":772,"o":"m 744 0 l 440 958 l 311 958 l 12 0 l 118 0 l 209 295 l 544 295 l 637 0 l 744 0 m 515 386 l 237 386 l 375 859 l 378 859 l 515 386 m 558 1088 l 558 1211 l 436 1211 l 436 1088 l 558 1088 m 319 1088 l 319 1211 l 197 1211 l 197 1088 l 319 1088 "},"¸":{"x_min":118.421875,"x_max":337.5625,"ha":417,"o":"m 118 -297 b 204 -315 145 -309 172 -315 b 337 -199 274 -315 337 -277 b 223 -80 337 -126 294 -80 l 202 -80 l 227 22 l 168 22 l 136 -128 b 261 -195 185 -128 261 -122 b 196 -259 261 -231 231 -259 b 118 -226 170 -259 136 -244 l 118 -297 "},"a":{"x_min":57.171875,"x_max":522.671875,"ha":643,"o":"m 522 0 l 522 463 b 304 676 522 612 451 676 b 72 491 187 676 76 623 l 175 491 b 307 597 186 570 230 597 b 430 393 435 597 430 491 l 430 379 b 57 169 225 379 57 316 b 231 -15 57 56 118 -15 b 430 87 303 -15 394 18 l 432 87 l 432 0 l 522 0 m 430 300 b 405 166 430 244 427 215 b 254 63 379 106 317 63 b 163 159 200 63 163 104 b 375 300 163 265 294 300 l 430 300 "},"=":{"x_min":76.21875,"x_max":705.0625,"ha":797,"o":"m 705 397 l 705 481 l 76 481 l 76 397 l 705 397 m 705 194 l 705 279 l 76 279 l 76 194 l 705 194 "},"N":{"x_min":115.6875,"x_max":741.8125,"ha":875,"o":"m 741 0 l 741 958 l 641 958 l 641 148 l 638 148 l 251 958 l 115 958 l 115 0 l 216 0 l 216 806 l 219 806 l 605 0 l 741 0 "},"ú":{"x_min":103.78125,"x_max":566.5625,"ha":694,"o":"m 566 0 l 566 661 l 474 661 l 474 388 b 291 79 474 284 420 79 b 196 294 185 79 196 220 l 196 661 l 103 661 l 103 188 b 269 -15 103 81 156 -15 b 471 152 380 -15 441 51 l 474 152 l 474 0 l 566 0 m 382 776 l 474 962 l 354 962 l 297 776 l 382 776 "},"2":{"x_min":74.859375,"x_max":592.078125,"ha":694,"o":"m 592 0 l 592 94 l 206 94 b 579 651 352 226 579 437 b 337 895 579 800 481 895 b 74 681 202 895 81 830 l 189 681 b 330 816 189 766 250 816 b 473 662 423 816 473 751 b 74 93 473 470 210 209 l 74 0 l 592 0 "},"ü":{"x_min":103.4375,"x_max":566.21875,"ha":694,"o":"m 566 0 l 566 661 l 473 661 l 473 388 b 291 79 473 284 420 79 b 196 294 185 79 196 220 l 196 661 l 103 661 l 103 188 b 269 -15 103 81 156 -15 b 470 152 379 -15 441 51 l 473 152 l 473 0 l 566 0 m 528 791 l 528 913 l 405 913 l 405 791 l 528 791 m 288 791 l 288 913 l 166 913 l 166 791 l 288 791 "},"¯":{"x_min":31.3125,"x_max":375.671875,"ha":417,"o":"m 375 776 l 375 859 l 31 859 l 31 776 l 375 776 "},"Z":{"x_min":33,"x_max":621,"ha":668,"o":"m 621 0 l 621 90 l 151 90 l 601 865 l 601 958 l 56 958 l 56 868 l 484 868 l 33 93 l 33 0 l 621 0 "},"u":{"x_min":103.4375,"x_max":566.21875,"ha":694,"o":"m 566 0 l 566 661 l 473 661 l 473 388 b 291 79 473 284 420 79 b 196 294 185 79 196 220 l 196 661 l 103 661 l 103 188 b 269 -15 103 81 156 -15 b 470 152 379 -15 441 51 l 473 152 l 473 0 l 566 0 "},"Ó":{"x_min":69.78125,"x_max":738.078125,"ha":824,"o":"m 404 -15 b 738 480 679 -15 738 252 b 404 973 738 709 679 973 b 69 480 128 973 69 712 b 404 -15 69 252 128 -15 m 404 75 b 185 481 205 75 185 330 b 404 883 185 631 205 883 b 622 481 600 883 622 631 b 404 75 622 333 600 75 m 446 1073 l 538 1259 l 418 1259 l 361 1073 l 446 1073 "},"k":{"x_min":108.890625,"x_max":570.3125,"ha":592,"o":"m 570 0 l 308 368 l 541 661 l 428 661 l 204 381 l 201 381 l 201 958 l 108 958 l 108 0 l 201 0 l 201 352 l 204 352 l 455 0 l 570 0 "},"Ù":{"x_min":108.03125,"x_max":700.171875,"ha":824,"o":"m 594 329 b 399 75 594 181 570 75 b 214 329 235 75 214 190 l 214 958 l 108 958 l 108 308 b 395 -15 108 112 189 -15 b 700 308 618 -15 700 95 l 700 958 l 594 958 l 594 329 m 447 1073 l 389 1259 l 270 1259 l 361 1073 l 447 1073 "},"€":{"x_min":24.5,"x_max":699.609375,"ha":746,"o":"m 666 144 b 475 73 605 95 544 73 b 247 359 345 73 273 163 l 509 359 l 521 422 l 242 422 b 240 488 240 444 240 466 l 534 488 l 547 551 l 243 551 b 441 838 258 738 326 838 b 586 662 533 838 585 777 l 699 662 l 699 668 b 441 925 699 820 597 925 b 136 559 261 925 153 797 l 134 551 l 62 551 l 50 488 l 132 488 b 132 422 130 456 132 445 l 35 422 l 24 359 l 136 359 b 462 -15 163 111 276 -15 b 666 38 529 -15 590 1 l 666 144 "},"¢":{"x_min":57.171875,"x_max":548.53125,"ha":617,"o":"m 345 -134 l 345 -15 b 536 8 398 -15 485 -13 l 536 65 b 408 40 500 47 449 40 b 345 52 387 40 363 45 l 345 620 b 438 458 419 594 438 531 l 548 458 b 345 676 548 586 465 661 l 345 780 l 284 780 l 284 676 b 57 358 117 658 57 511 b 284 -5 57 201 111 23 l 284 -134 l 345 -134 m 284 77 b 172 373 197 140 172 272 b 284 620 172 461 185 594 l 284 77 "},"ß":{"x_min":108.890625,"x_max":645.171875,"ha":721,"o":"m 277 2 b 381 -12 310 -9 344 -12 b 645 259 551 -12 645 88 b 451 519 645 395 596 504 l 451 522 b 592 736 547 552 592 637 b 347 973 592 886 488 973 b 108 702 172 973 108 868 l 108 0 l 201 0 l 201 677 b 345 894 201 788 208 894 b 485 729 438 894 485 813 b 353 558 485 640 447 565 l 333 558 l 333 479 l 353 479 b 539 261 491 479 539 390 b 368 66 539 147 488 66 b 277 81 337 66 308 76 l 277 2 "},"é":{"x_min":65.171875,"x_max":544.28125,"ha":617,"o":"m 529 81 b 401 63 485 70 446 63 b 171 354 242 63 171 209 l 171 393 l 544 393 l 544 425 b 318 676 544 572 468 676 b 65 352 127 676 65 525 b 380 -15 65 137 156 -15 b 529 4 431 -15 481 -11 l 529 81 m 178 472 b 314 597 193 545 236 597 b 438 472 385 597 438 545 l 178 472 m 357 776 l 449 962 l 329 962 l 272 776 l 357 776 "},"s":{"x_min":50.359375,"x_max":468.21875,"ha":514,"o":"m 50 12 b 227 -15 108 -5 167 -15 b 468 184 356 -15 468 36 b 317 373 468 291 397 325 l 262 406 b 145 511 224 430 145 456 b 276 597 145 575 225 597 b 427 566 325 597 379 584 l 427 654 b 274 676 377 666 328 676 b 53 501 163 676 53 630 b 200 322 53 400 123 362 l 258 290 b 375 170 306 263 375 237 b 217 63 375 83 287 63 b 50 98 159 63 104 80 l 50 12 "},"B":{"x_min":115.6875,"x_max":664.21875,"ha":746,"o":"m 364 0 b 664 259 533 0 664 70 b 483 506 664 393 612 475 l 483 509 b 620 722 574 543 620 625 b 364 958 620 879 511 958 l 115 958 l 115 0 l 364 0 m 221 544 l 221 868 l 328 868 b 514 715 430 868 514 838 b 313 544 514 580 426 544 l 221 544 m 221 90 l 221 454 l 356 454 b 558 270 469 454 558 393 b 344 90 558 133 460 90 l 221 90 "},"?":{"x_min":92.5625,"x_max":532.1875,"ha":565,"o":"m 279 258 l 279 300 b 353 469 279 390 295 402 l 421 548 b 532 759 479 613 532 661 b 274 973 532 909 406 973 b 92 941 210 973 151 959 l 92 837 b 270 884 142 863 215 884 b 424 754 351 884 424 844 b 344 606 424 690 381 652 l 265 516 b 182 322 190 434 182 438 l 182 258 l 279 258 m 296 0 l 296 134 l 163 134 l 163 0 l 296 0 "},"H":{"x_min":115.6875,"x_max":715.953125,"ha":849,"o":"m 715 0 l 715 958 l 609 958 l 609 543 l 221 543 l 221 958 l 115 958 l 115 0 l 221 0 l 221 452 l 609 452 l 609 0 l 715 0 "},"î":{"x_min":-5,"x_max":335,"ha":335,"o":"m 211 0 l 211 661 l 118 661 l 118 0 l 211 0 m 335 776 l 215 962 l 114 962 l -5 776 l 77 776 l 166 891 l 252 776 l 335 776 "},"c":{"x_min":62.609375,"x_max":548.53125,"ha":592,"o":"m 530 77 b 426 63 498 66 462 63 b 168 366 242 63 168 195 b 322 597 168 465 204 597 b 438 459 404 597 438 537 l 548 459 b 326 676 548 602 462 676 b 62 345 127 676 62 526 b 396 -15 62 123 172 -15 b 530 2 443 -15 485 -9 l 530 77 "},"¶":{"x_min":87.109375,"x_max":650.609375,"ha":694,"o":"m 559 -297 l 559 901 l 650 901 l 650 958 l 495 958 b 87 625 292 958 87 859 b 389 309 87 440 221 331 l 389 -297 l 439 -297 l 439 901 l 509 901 l 509 -297 l 559 -297 "},"¥":{"x_min":-6.640625,"x_max":688.71875,"ha":694,"o":"m 392 0 l 392 238 l 544 238 l 544 304 l 392 304 l 392 376 l 544 376 l 544 441 l 392 441 l 688 958 l 574 958 l 339 548 l 107 958 l -6 958 l 286 441 l 133 441 l 133 376 l 286 376 l 286 304 l 133 304 l 133 238 l 286 238 l 286 0 l 392 0 "},"(":{"x_min":95.125,"x_max":341.640625,"ha":386,"o":"m 341 -136 b 205 432 190 -59 205 286 b 341 1003 205 581 191 924 l 341 1066 b 95 432 80 1016 95 636 b 341 -199 95 224 83 -140 l 341 -136 "},"U":{"x_min":107.53125,"x_max":699.609375,"ha":824,"o":"m 593 329 b 398 75 593 181 570 75 b 213 329 235 75 213 190 l 213 958 l 107 958 l 107 308 b 394 -15 107 112 189 -15 b 699 308 617 -15 699 95 l 699 958 l 593 958 l 593 329 "},"◊":{"x_min":63,"x_max":620,"ha":717,"o":"m 368 0 l 620 486 l 368 972 l 312 972 l 63 484 l 312 0 l 368 0 m 339 115 l 150 486 l 340 856 l 531 486 l 339 115 "},"Ñ":{"x_min":115.6875,"x_max":741.8125,"ha":875,"o":"m 741 0 l 741 958 l 641 958 l 641 148 l 638 148 l 251 958 l 115 958 l 115 0 l 216 0 l 216 806 l 219 806 l 605 0 l 741 0 m 533 1222 b 504 1156 533 1200 534 1156 b 344 1231 466 1156 398 1231 b 266 1073 273 1231 266 1125 l 323 1073 b 352 1141 323 1090 330 1141 b 511 1070 379 1141 450 1070 b 590 1222 586 1070 590 1166 l 533 1222 "},"F":{"x_min":115.6875,"x_max":570.3125,"ha":592,"o":"m 221 0 l 221 456 l 553 456 l 553 547 l 221 547 l 221 868 l 570 868 l 570 958 l 115 958 l 115 0 l 221 0 "},"­":{"x_min":70.78125,"x_max":484.5625,"ha":565,"o":"m 484 298 l 484 393 l 70 393 l 70 298 l 484 298 "},":":{"x_min":157.890625,"x_max":294,"ha":360,"o":"m 294 522 l 294 661 l 157 661 l 157 522 l 294 522 m 294 0 l 294 138 l 157 138 l 157 0 l 294 0 "},"Û":{"x_min":107.421875,"x_max":699.21875,"ha":824,"o":"m 593 329 b 398 75 593 181 569 75 b 213 329 235 75 213 190 l 213 958 l 107 958 l 107 308 b 394 -15 107 112 189 -15 b 699 308 617 -15 699 95 l 699 958 l 593 958 l 593 329 m 574 1073 l 454 1259 l 353 1259 l 234 1073 l 316 1073 l 405 1188 l 491 1073 l 574 1073 "},"*":{"x_min":14.078125,"x_max":415.921875,"ha":438,"o":"m 347 618 b 270 747 324 661 298 707 b 323 743 287 746 305 743 l 415 743 l 415 811 l 323 811 b 270 807 305 811 287 808 b 347 937 298 847 324 893 l 286 974 b 215 839 260 930 233 885 b 144 974 195 885 170 930 l 84 937 b 161 807 108 893 133 847 b 106 811 143 808 124 811 l 14 811 l 14 743 l 106 743 b 161 747 124 743 143 746 b 84 618 133 704 110 661 l 144 582 b 215 712 170 622 197 667 b 286 582 236 668 260 625 l 347 618 "},"°":{"x_min":122.5,"x_max":421.9375,"ha":556,"o":"m 272 590 b 421 745 357 590 421 659 b 272 895 421 829 352 895 b 122 747 194 895 122 829 b 272 590 122 663 189 590 m 272 654 b 185 745 223 654 185 695 b 272 831 185 793 224 831 b 359 745 318 831 359 793 b 272 654 359 694 323 654 "},"V":{"x_min":-23,"x_max":730,"ha":721,"o":"m 416 0 l 730 958 l 621 958 l 352 118 l 350 118 l 85 958 l -23 958 l 283 0 l 416 0 "},"å":{"x_min":57.171875,"x_max":522.671875,"ha":643,"o":"m 522 0 l 522 463 b 304 676 522 612 451 676 b 72 491 187 676 76 623 l 175 491 b 307 597 186 570 230 597 b 430 393 435 597 430 491 l 430 379 b 57 169 225 379 57 316 b 231 -15 57 56 118 -15 b 430 87 303 -15 394 18 l 432 87 l 432 0 l 522 0 m 430 300 b 405 166 430 244 427 215 b 254 63 379 106 317 63 b 163 159 200 63 163 104 b 375 300 163 265 294 300 l 430 300 m 432 873 b 317 991 432 937 381 991 b 198 873 253 991 198 937 b 315 754 198 808 251 754 b 432 873 378 754 432 808 m 374 873 b 315 813 374 840 348 813 b 257 873 283 813 257 840 b 315 931 257 906 283 931 b 374 873 347 931 374 905 "}," ":{"x_min":0,"x_max":0,"ha":360},"0":{"x_min":46.28125,"x_max":634.28125,"ha":694,"o":"m 340 -15 b 634 440 586 -15 634 238 b 340 895 634 641 588 895 b 46 440 92 895 46 641 b 340 -15 46 238 93 -15 m 340 63 b 152 440 161 63 152 309 b 340 816 152 570 161 816 b 528 440 519 816 528 572 b 340 63 528 308 519 63 "},"¾":{"x_min":43.5625,"x_max":1090.25,"ha":1132,"o":"m 990 0 l 990 166 l 1090 166 l 1090 233 l 990 233 l 990 601 l 909 601 l 673 229 l 673 166 l 914 166 l 914 0 l 990 0 m 451 0 l 735 880 l 657 880 l 374 0 l 451 0 m 196 565 b 323 447 280 565 323 545 b 223 341 323 376 292 341 b 130 416 176 341 130 362 l 43 416 b 227 275 43 312 140 275 b 405 440 330 275 405 329 b 310 600 405 520 386 570 b 394 741 372 637 394 662 b 227 895 394 841 319 895 b 53 756 145 895 53 851 l 137 756 b 223 829 137 806 181 829 b 313 733 284 829 313 794 b 216 631 313 670 280 631 l 196 631 l 196 565 m 914 233 l 752 233 l 911 501 l 914 501 l 914 233 "},"@":{"x_min":72.140625,"x_max":1030.359375,"ha":1125,"o":"m 762 38 b 1030 409 868 38 1030 161 b 578 836 1030 658 835 836 b 72 315 321 836 72 630 b 544 -173 72 0 280 -173 b 916 -63 805 -173 916 -63 l 880 1 b 551 -91 880 1 779 -91 b 159 312 325 -91 159 54 b 578 754 159 570 352 754 b 950 409 804 754 950 598 b 769 120 950 220 833 120 b 709 180 726 120 709 143 b 717 233 709 194 711 212 l 792 622 l 711 622 l 699 556 l 699 552 b 563 634 672 606 634 634 b 307 250 377 634 307 404 b 473 34 307 144 351 34 b 628 122 534 34 588 69 b 762 38 638 81 673 38 m 487 111 b 393 248 416 111 393 187 b 564 558 393 345 439 558 b 662 394 643 558 662 461 b 487 111 662 288 612 111 "},"ö":{"x_min":62.609375,"x_max":593.4375,"ha":668,"o":"m 326 -15 b 593 329 529 -15 593 148 b 326 676 593 506 529 676 b 62 329 125 676 62 506 b 326 -15 62 150 125 -15 m 326 63 b 168 330 191 63 168 225 b 326 597 168 436 191 597 b 487 330 461 597 487 437 b 326 63 487 223 462 63 m 509 791 l 509 913 l 386 913 l 386 791 l 509 791 m 269 791 l 269 913 l 147 913 l 147 791 l 269 791 "},"i":{"x_min":102.078125,"x_max":224.578125,"ha":335,"o":"m 224 833 l 224 958 l 102 958 l 102 833 l 224 833 m 209 0 l 209 661 l 117 661 l 117 0 l 209 0 "},"Õ":{"x_min":69.421875,"x_max":737.71875,"ha":824,"o":"m 404 -15 b 737 480 679 -15 737 252 b 404 973 737 709 679 973 b 69 480 127 973 69 712 b 404 -15 69 252 127 -15 m 404 75 b 185 481 205 75 185 330 b 404 883 185 631 205 883 b 622 481 600 883 622 631 b 404 75 622 333 600 75 m 509 1222 b 480 1156 509 1200 510 1156 b 319 1231 442 1156 374 1231 b 242 1073 249 1231 242 1125 l 299 1073 b 328 1141 299 1090 306 1141 b 487 1070 355 1141 426 1070 b 566 1222 562 1070 566 1166 l 509 1222 "},"þ":{"x_min":108.890625,"x_max":593.4375,"ha":668,"o":"m 201 -297 l 201 108 l 204 108 b 375 -15 231 29 292 -15 b 593 345 558 -15 593 200 b 381 676 593 488 556 676 b 204 548 294 676 236 627 l 201 548 l 201 958 l 108 958 l 108 -297 l 201 -297 m 353 63 b 201 333 231 63 201 237 b 352 597 201 420 240 597 b 487 345 476 597 487 438 b 353 63 487 256 475 63 "},"]":{"x_min":24.5,"x_max":270.859375,"ha":411,"o":"m 270 -188 l 270 1056 l 24 1056 l 24 975 l 170 975 l 170 -106 l 24 -106 l 24 -188 l 270 -188 "},"m":{"x_min":107.53125,"x_max":899.703125,"ha":1029,"o":"m 899 0 l 899 472 b 733 676 899 576 847 676 b 549 525 643 676 574 608 l 547 525 b 383 676 540 625 480 676 b 202 508 279 676 227 604 l 200 508 l 200 661 l 107 661 l 107 0 l 200 0 l 200 272 b 362 581 200 362 245 581 b 457 366 468 581 457 440 l 457 0 l 549 0 l 549 272 b 711 581 549 362 592 581 b 807 366 816 581 807 440 l 807 0 l 899 0 "},"8":{"x_min":70.78125,"x_max":611.140625,"ha":694,"o":"m 449 455 b 594 673 549 473 594 577 b 343 895 594 822 477 895 b 88 670 205 895 88 822 b 232 455 88 559 129 488 l 232 452 b 70 236 125 430 70 345 b 340 -15 70 59 176 -15 b 611 231 500 -15 611 58 b 449 452 611 338 555 430 l 449 455 m 347 494 b 194 652 245 494 194 551 b 340 816 194 747 246 816 b 488 651 442 816 488 751 b 347 494 488 559 441 494 m 344 63 b 176 243 228 63 176 127 b 340 415 176 347 235 415 b 504 241 450 415 504 351 b 344 63 504 126 460 63 "},"R":{"x_min":115.6875,"x_max":673.75,"ha":746,"o":"m 673 0 l 619 262 b 457 473 597 376 581 440 l 457 476 b 647 716 582 509 647 576 b 348 958 647 898 502 958 l 115 958 l 115 0 l 221 0 l 221 426 l 319 426 b 521 220 469 426 492 354 l 567 0 l 673 0 m 221 516 l 221 868 l 300 868 b 541 705 421 868 541 865 b 280 516 541 545 406 516 l 221 516 "},"á":{"x_min":57,"x_max":522.5,"ha":643,"o":"m 522 0 l 522 463 b 304 676 522 612 451 676 b 71 491 187 676 76 623 l 175 491 b 307 597 186 570 229 597 b 429 393 435 597 429 491 l 429 379 b 57 169 225 379 57 316 b 231 -15 57 56 118 -15 b 429 87 303 -15 394 18 l 432 87 l 432 0 l 522 0 m 429 300 b 405 166 429 244 427 215 b 254 63 379 106 316 63 b 163 159 199 63 163 104 b 375 300 163 265 293 300 l 429 300 m 357 776 l 449 962 l 329 962 l 272 776 l 357 776 "},"×":{"x_min":74,"x_max":707,"ha":797,"o":"m 707 72 l 457 335 l 702 598 l 638 661 l 393 403 l 150 661 l 78 587 l 324 325 l 74 64 l 137 0 l 383 263 l 632 0 l 707 72 "},"o":{"x_min":62.609375,"x_max":593.4375,"ha":668,"o":"m 326 -15 b 593 329 529 -15 593 148 b 326 676 593 506 529 676 b 62 329 125 676 62 506 b 326 -15 62 150 125 -15 m 326 63 b 168 330 191 63 168 225 b 326 597 168 436 191 597 b 487 330 461 597 487 437 b 326 63 487 223 462 63 "},"5":{"x_min":84.390625,"x_max":627.46875,"ha":694,"o":"m 84 183 b 107 99 84 153 92 123 b 348 -15 155 10 254 -15 b 627 252 509 -15 627 81 b 368 533 627 417 539 533 b 225 490 319 533 268 517 l 238 785 l 571 785 l 571 880 l 144 880 l 121 384 l 224 384 b 360 453 257 435 300 453 b 521 255 473 453 521 360 b 347 63 521 138 464 63 b 205 183 277 63 205 105 l 84 183 "},"õ":{"x_min":62.609375,"x_max":593.4375,"ha":668,"o":"m 326 -15 b 593 329 529 -15 593 148 b 326 676 593 506 529 676 b 62 329 125 676 62 506 b 326 -15 62 150 125 -15 m 326 63 b 168 330 191 63 168 225 b 326 597 168 436 191 597 b 487 330 461 597 487 437 b 326 63 487 223 462 63 m 432 925 b 404 859 432 902 434 859 b 243 934 366 859 298 934 b 166 776 172 934 166 827 l 223 776 b 251 844 223 793 230 844 b 411 773 279 844 349 773 b 490 925 485 773 490 869 l 432 925 "},"7":{"x_min":88.25,"x_max":595.9375,"ha":694,"o":"m 267 0 l 595 791 l 595 880 l 88 880 l 88 786 l 484 786 l 154 0 l 267 0 "},"K":{"x_min":115.6875,"x_max":706.421875,"ha":721,"o":"m 706 0 l 326 498 l 677 958 l 553 958 l 224 523 l 221 523 l 221 958 l 115 958 l 115 0 l 221 0 l 221 469 l 224 469 l 581 0 l 706 0 "},",":{"x_min":75.171875,"x_max":214,"ha":283,"o":"m 166 -170 l 214 138 l 92 138 l 75 -170 l 166 -170 "},"d":{"x_min":61.25,"x_max":547.171875,"ha":668,"o":"m 547 0 l 547 958 l 454 958 l 454 552 l 451 552 b 281 676 424 634 367 676 b 61 325 103 676 61 468 b 283 -15 61 170 95 -15 b 451 112 360 -15 428 36 l 454 112 l 454 0 l 547 0 m 302 63 b 167 306 182 63 167 215 b 304 597 167 398 176 597 b 454 327 427 597 454 420 b 302 63 454 234 416 63 "},"¨":{"x_min":23.140625,"x_max":385.1875,"ha":417,"o":"m 385 791 l 385 913 l 262 913 l 262 791 l 385 791 m 145 791 l 145 913 l 23 913 l 23 791 l 145 791 "},"Ô":{"x_min":69.3125,"x_max":737.328125,"ha":824,"o":"m 404 -15 b 737 480 678 -15 737 252 b 404 973 737 709 678 973 b 69 480 127 973 69 712 b 404 -15 69 252 127 -15 m 404 75 b 185 481 205 75 185 330 b 404 883 185 631 205 883 b 621 481 599 883 621 631 b 404 75 621 333 599 75 m 574 1073 l 454 1259 l 353 1259 l 234 1073 l 316 1073 l 405 1188 l 491 1073 l 574 1073 "},"E":{"x_min":115.6875,"x_max":582.5625,"ha":643,"o":"m 582 0 l 582 90 l 221 90 l 221 456 l 553 456 l 553 547 l 221 547 l 221 868 l 570 868 l 570 958 l 115 958 l 115 0 l 582 0 "},"Y":{"x_min":-6.8125,"x_max":688.71875,"ha":694,"o":"m 392 0 l 392 441 l 688 958 l 573 958 l 338 551 l 108 958 l -6 958 l 285 441 l 285 0 l 392 0 "},"\"":{"x_min":77.578125,"x_max":401.53125,"ha":489,"o":"m 378 659 l 401 958 l 277 958 l 299 659 l 378 659 m 179 659 l 201 958 l 77 958 l 100 659 l 179 659 "},"ê":{"x_min":65.3125,"x_max":544.140625,"ha":617,"o":"m 529 81 b 401 63 485 70 446 63 b 171 354 242 63 171 209 l 171 393 l 544 393 l 544 425 b 318 676 544 572 467 676 b 65 352 127 676 65 525 b 380 -15 65 137 156 -15 b 529 4 431 -15 481 -11 l 529 81 m 178 472 b 314 597 193 545 236 597 b 438 472 384 597 438 545 l 178 472 m 472 776 l 352 962 l 251 962 l 132 776 l 214 776 l 303 891 l 389 776 l 472 776 "},"Ï":{"x_min":-4.078125,"x_max":357.96875,"ha":360,"o":"m 228 0 l 228 958 l 122 958 l 122 0 l 228 0 m 357 1088 l 357 1211 l 235 1211 l 235 1088 l 357 1088 m 118 1088 l 118 1211 l -4 1211 l -4 1088 l 118 1088 "},"Â":{"x_min":12,"x_max":744,"ha":772,"o":"m 744 0 l 440 958 l 311 958 l 12 0 l 118 0 l 209 295 l 543 295 l 637 0 l 744 0 m 515 386 l 237 386 l 375 859 l 378 859 l 515 386 m 548 1073 l 428 1259 l 327 1259 l 208 1073 l 290 1073 l 379 1188 l 465 1073 l 548 1073 "},"Í":{"x_min":123.171875,"x_max":311,"ha":360,"o":"m 229 0 l 229 958 l 123 958 l 123 0 l 229 0 m 219 1073 l 311 1259 l 191 1259 l 134 1073 l 219 1073 "},"´":{"x_min":161.0625,"x_max":338,"ha":417,"o":"m 246 776 l 338 962 l 218 962 l 161 776 l 246 776 "},"ì":{"x_min":30,"x_max":211.078125,"ha":335,"o":"m 211 0 l 211 661 l 118 661 l 118 0 l 211 0 m 207 776 l 149 962 l 30 962 l 121 776 l 207 776 "},"±":{"x_min":74.859375,"x_max":705.0625,"ha":797,"o":"m 436 144 l 436 440 l 705 440 l 705 525 l 436 525 l 436 797 l 344 797 l 344 525 l 74 525 l 74 440 l 344 440 l 344 144 l 436 144 m 705 0 l 705 84 l 74 84 l 74 0 l 705 0 "},"Ú":{"x_min":107.890625,"x_max":699.96875,"ha":824,"o":"m 593 329 b 399 75 593 181 570 75 b 214 329 235 75 214 190 l 214 958 l 107 958 l 107 308 b 395 -15 107 112 189 -15 b 699 308 618 -15 699 95 l 699 958 l 593 958 l 593 329 m 446 1073 l 538 1259 l 418 1259 l 361 1073 l 446 1073 "},"|":{"x_min":129.3125,"x_max":221.859375,"ha":358,"o":"m 221 -255 l 221 1156 l 129 1156 l 129 -255 l 221 -255 "},"§":{"x_min":54.3125,"x_max":575.5,"ha":643,"o":"m 106 13 b 280 -15 164 -4 220 -15 b 546 177 397 -15 546 33 b 473 312 546 237 518 279 b 575 481 531 354 575 404 b 199 809 575 693 199 655 b 333 894 199 872 285 894 b 515 838 398 894 459 870 l 515 940 b 318 973 451 961 384 973 b 91 793 210 973 91 918 b 152 672 91 743 114 701 b 54 501 101 623 54 579 b 131 363 54 436 78 398 b 239 312 164 341 202 327 b 438 165 297 290 438 244 b 287 63 438 87 348 63 b 106 125 221 63 160 91 l 106 13 m 423 338 b 284 400 378 361 331 379 b 149 533 225 426 149 455 b 201 640 149 577 172 608 b 258 615 218 629 240 622 b 375 565 297 598 337 583 b 480 447 424 540 480 512 b 423 338 480 404 453 369 "},"Ý":{"x_min":-6.46875,"x_max":689.0625,"ha":694,"o":"m 392 0 l 392 441 l 689 958 l 573 958 l 339 551 l 109 958 l -6 958 l 286 441 l 286 0 l 392 0 m 382 1073 l 474 1259 l 354 1259 l 297 1073 l 382 1073 "},"b":{"x_min":91.1875,"x_max":593.4375,"ha":668,"o":"m 91 272 b 333 -15 91 106 151 -15 b 593 323 529 -15 593 150 b 362 676 593 477 548 676 b 186 551 280 676 212 630 l 183 551 l 183 958 l 91 958 l 91 272 m 330 63 b 183 304 205 63 183 204 b 344 597 183 404 213 597 b 487 326 465 597 487 416 b 330 63 487 222 460 63 "},"q":{"x_min":62.609375,"x_max":547.171875,"ha":668,"o":"m 547 -297 l 547 661 l 454 661 l 454 548 l 451 548 b 283 676 430 626 360 676 b 62 336 96 676 62 488 b 281 -15 62 194 104 -15 b 451 108 364 -15 426 26 l 454 108 l 454 -297 l 547 -297 m 304 63 b 168 354 179 63 168 263 b 302 597 168 444 183 597 b 454 333 420 597 454 426 b 304 63 454 240 427 63 "},"Ö":{"x_min":69.421875,"x_max":737.71875,"ha":824,"o":"m 404 -15 b 737 480 679 -15 737 252 b 404 973 737 709 679 973 b 69 480 127 973 69 712 b 404 -15 69 252 127 -15 m 404 75 b 185 481 205 75 185 330 b 404 883 185 631 205 883 b 622 481 600 883 622 631 b 404 75 622 333 600 75 m 585 1088 l 585 1211 l 462 1211 l 462 1088 l 585 1088 m 345 1088 l 345 1211 l 223 1211 l 223 1088 l 345 1088 "},"z":{"x_min":41.96875,"x_max":506.03125,"ha":565,"o":"m 506 0 l 506 79 l 156 79 l 493 580 l 493 661 l 66 661 l 66 581 l 380 581 l 41 77 l 41 0 l 506 0 "},"ã":{"x_min":57.171875,"x_max":522.671875,"ha":643,"o":"m 522 0 l 522 463 b 304 676 522 612 451 676 b 72 491 187 676 76 623 l 175 491 b 307 597 186 570 230 597 b 430 393 435 597 430 491 l 430 379 b 57 169 225 379 57 316 b 231 -15 57 56 118 -15 b 430 87 303 -15 394 18 l 432 87 l 432 0 l 522 0 m 430 300 b 405 166 430 244 427 215 b 254 63 379 106 317 63 b 163 159 200 63 163 104 b 375 300 163 265 294 300 l 430 300 m 420 925 b 392 859 420 902 421 859 b 231 934 353 859 285 934 b 153 776 160 934 153 827 l 210 776 b 239 844 210 793 217 844 b 398 773 266 844 337 773 b 477 925 473 773 477 869 l 420 925 "},"æ":{"x_min":57.171875,"x_max":899.703125,"ha":979,"o":"m 884 81 b 758 63 841 70 803 63 b 537 220 653 63 575 119 b 519 313 526 250 519 281 l 519 351 l 899 351 l 899 384 b 673 676 899 530 838 676 b 484 591 602 676 532 645 b 304 676 451 654 368 676 b 72 491 187 676 76 623 l 175 491 b 307 597 186 570 230 597 b 421 526 360 597 401 577 b 427 505 423 519 427 515 l 427 429 b 57 201 284 431 57 386 b 231 -15 57 87 107 -15 b 473 123 344 -15 421 18 b 736 -15 517 29 641 -15 b 884 4 786 -15 837 -11 l 884 81 m 526 430 b 669 597 537 512 577 597 b 793 430 755 597 793 505 l 526 430 m 427 261 b 254 63 427 152 366 63 b 163 191 189 63 163 134 b 375 351 163 301 281 351 l 427 351 l 427 261 "},"®":{"x_min":20.8125,"x_max":660.53125,"ha":694,"o":"m 660 647 b 340 973 660 826 516 973 b 20 647 165 973 20 826 b 340 320 20 466 165 320 b 660 647 517 320 660 466 m 612 647 b 340 369 612 495 489 369 b 68 647 192 369 68 495 b 340 925 68 798 192 925 b 612 647 489 925 612 798 m 474 483 l 411 631 b 469 716 450 651 469 666 b 332 827 469 809 410 827 l 219 827 l 219 483 l 280 483 l 280 622 l 354 622 l 406 483 l 474 483 m 280 677 l 280 768 l 348 768 b 406 722 377 768 406 756 b 354 677 406 690 381 677 l 280 677 "},"É":{"x_min":116.109375,"x_max":582.96875,"ha":643,"o":"m 582 0 l 582 90 l 222 90 l 222 456 l 554 456 l 554 547 l 222 547 l 222 868 l 570 868 l 570 958 l 116 958 l 116 0 l 582 0 m 378 1073 l 470 1259 l 350 1259 l 293 1073 l 378 1073 "},"~":{"x_min":93,"x_max":690.53125,"ha":797,"o":"m 629 429 b 517 341 602 379 561 341 b 400 384 478 341 442 358 b 264 427 358 411 317 427 b 93 313 182 427 132 376 l 154 245 b 265 333 180 294 220 333 b 381 290 308 333 344 313 b 520 247 423 263 471 247 b 690 359 596 247 649 295 l 629 429 "},"³":{"x_min":43.5625,"x_max":405.609375,"ha":489,"o":"m 196 837 b 323 719 280 837 323 818 b 223 613 323 648 292 613 b 130 688 176 613 130 634 l 43 688 b 227 547 43 584 140 547 b 405 712 330 547 405 601 b 310 872 405 793 386 843 b 394 1013 372 909 394 934 b 227 1168 394 1113 319 1168 b 53 1029 145 1168 53 1123 l 137 1029 b 223 1101 137 1079 181 1101 b 313 1005 284 1101 313 1066 b 216 904 313 943 277 904 l 196 904 l 196 837 "},"¡":{"x_min":72.140625,"x_max":205.53125,"ha":386,"o":"m 205 633 l 205 769 l 72 769 l 72 633 l 205 633 m 194 -188 l 185 509 l 92 509 l 83 -188 l 194 -188 "},"[":{"x_min":133.390625,"x_max":379.75,"ha":411,"o":"m 379 -188 l 379 -106 l 234 -106 l 234 975 l 379 975 l 379 1056 l 133 1056 l 133 -188 l 379 -188 "},"L":{"x_min":115.6875,"x_max":558.0625,"ha":565,"o":"m 558 0 l 558 90 l 221 90 l 221 958 l 115 958 l 115 0 l 558 0 "}," ":{"x_min":0,"x_max":0,"ha":360},"%":{"x_min":38.078125,"x_max":1072.53125,"ha":1132,"o":"m 871 -15 b 1072 295 1039 -15 1072 158 b 871 605 1072 433 1039 605 b 668 295 703 605 668 436 b 871 -15 668 156 702 -15 m 451 0 l 734 880 l 658 880 l 375 0 l 451 0 m 239 275 b 440 586 408 275 440 448 b 239 895 440 723 408 895 b 38 586 70 895 38 723 b 239 275 38 448 70 275 m 871 51 b 749 295 755 51 749 211 b 871 538 749 379 755 538 b 990 295 985 538 990 379 b 871 51 990 211 985 51 m 239 341 b 119 586 125 341 119 502 b 239 829 119 669 125 829 b 359 586 353 829 359 669 b 239 341 359 501 353 341 "},"P":{"x_min":115.6875,"x_max":631.5625,"ha":668,"o":"m 221 0 l 221 427 l 333 427 b 631 693 504 427 631 501 b 333 958 631 891 509 958 l 115 958 l 115 0 l 221 0 m 221 518 l 221 868 l 310 868 b 525 691 434 868 525 840 b 336 518 525 566 453 518 l 221 518 "},"À":{"x_min":12,"x_max":744,"ha":772,"o":"m 744 0 l 440 958 l 311 958 l 12 0 l 118 0 l 209 295 l 544 295 l 637 0 l 744 0 m 515 386 l 237 386 l 375 859 l 377 859 l 515 386 m 420 1073 l 362 1259 l 243 1259 l 334 1073 l 420 1073 "},"_":{"x_min":0,"x_max":680.5625,"ha":694,"o":"m 680 -161 l 680 -90 l 0 -90 l 0 -161 l 680 -161 "},"ñ":{"x_min":108.484375,"x_max":572.625,"ha":694,"o":"m 572 0 l 572 472 b 406 676 572 576 519 676 b 203 508 293 676 236 611 l 201 508 l 201 661 l 108 661 l 108 0 l 201 0 l 201 272 b 384 581 201 375 255 581 b 480 366 492 581 480 440 l 480 0 l 572 0 m 444 925 b 416 859 444 902 446 859 b 255 934 377 859 309 934 b 177 776 184 934 177 827 l 235 776 b 263 844 235 793 241 844 b 422 773 290 844 361 773 b 501 925 497 773 501 869 l 444 925 "},"+":{"x_min":76.21875,"x_max":705.0625,"ha":797,"o":"m 436 0 l 436 295 l 705 295 l 705 380 l 436 380 l 436 652 l 344 652 l 344 380 l 76 380 l 76 295 l 344 295 l 344 0 l 436 0 "},"½":{"x_min":120.6875,"x_max":1043.53125,"ha":1132,"o":"m 1043 0 l 1043 66 l 790 66 b 862 136 813 90 839 112 b 1035 443 938 213 1035 327 b 867 611 1035 547 968 611 b 686 459 775 611 690 561 l 771 459 b 863 548 771 515 810 548 b 953 450 922 548 953 506 b 686 65 953 319 782 144 l 686 0 l 1043 0 m 424 0 l 705 880 l 628 880 l 346 0 l 424 0 m 307 280 l 307 880 l 244 880 l 120 802 l 120 722 l 230 797 l 230 280 l 307 280 "},"Æ":{"x_min":0,"x_max":1037.109375,"ha":1107,"o":"m 1037 0 l 1037 90 l 719 90 l 696 415 l 1007 415 l 1007 505 l 691 505 l 664 868 l 1023 868 l 1023 958 l 534 958 l 0 0 l 118 0 l 349 415 l 600 415 l 628 0 l 1037 0 m 593 505 l 390 505 l 570 841 l 572 841 l 593 505 "},"Ë":{"x_min":115.6875,"x_max":582.5625,"ha":643,"o":"m 582 0 l 582 90 l 221 90 l 221 456 l 553 456 l 553 547 l 221 547 l 221 868 l 570 868 l 570 958 l 115 958 l 115 0 l 582 0 m 530 1088 l 530 1211 l 408 1211 l 408 1088 l 530 1088 m 291 1088 l 291 1211 l 168 1211 l 168 1088 l 291 1088 "},"'":{"x_min":76.21875,"x_max":200.078125,"ha":283,"o":"m 178 659 l 200 958 l 76 958 l 99 659 l 178 659 "},"ª":{"x_min":47.640625,"x_max":303.53125,"ha":360,"o":"m 303 398 l 303 652 b 183 770 303 736 266 770 b 55 669 122 770 55 741 l 112 669 b 185 729 112 709 148 729 b 254 605 257 729 254 659 b 47 487 176 605 47 593 b 144 390 47 429 87 390 b 251 447 187 390 230 406 l 254 447 l 254 398 l 303 398 m 254 563 b 253 531 254 552 254 543 b 155 437 249 481 204 437 b 102 487 126 437 102 455 b 240 563 102 558 191 563 l 254 563 "},"ð":{"x_min":63.890625,"x_max":616.5,"ha":694,"o":"m 449 627 b 340 676 421 659 382 676 b 63 328 136 676 63 512 b 340 -15 63 144 136 -15 b 616 328 543 -15 616 144 b 420 798 616 512 551 672 l 499 832 l 476 888 l 368 843 l 310 881 l 140 881 b 277 807 187 860 234 836 l 187 769 l 209 715 l 332 765 b 451 630 370 733 428 677 l 449 627 m 340 63 b 170 330 198 63 170 214 b 340 596 170 446 198 596 b 510 330 480 596 510 444 b 340 63 510 214 481 63 "},"T":{"x_min":0,"x_max":555.328125,"ha":565,"o":"m 330 0 l 330 868 l 555 868 l 555 958 l 0 958 l 0 868 l 224 868 l 224 0 l 330 0 "},"Þ":{"x_min":115.6875,"x_max":631.5625,"ha":668,"o":"m 351 227 b 631 502 543 227 631 298 b 351 773 631 695 534 773 l 221 773 l 221 958 l 115 958 l 115 0 l 221 0 l 221 227 l 351 227 m 221 318 l 221 683 l 330 683 b 515 500 451 683 515 631 b 330 318 515 362 454 318 l 221 318 "},"j":{"x_min":-57.171875,"x_max":232.75,"ha":335,"o":"m 232 833 l 232 958 l 110 958 l 110 833 l 232 833 m -57 -284 b -28 -286 -47 -286 -38 -286 b 219 -68 110 -286 219 -222 l 219 661 l 126 661 l 126 -48 b -14 -206 126 -151 89 -206 b -57 -201 -31 -206 -44 -205 l -57 -284 "},"1":{"x_min":171.5,"x_max":436.921875,"ha":694,"o":"m 436 0 l 436 880 l 349 880 l 171 766 l 171 661 l 334 773 l 334 0 l 436 0 "},"ä":{"x_min":57.171875,"x_max":522.671875,"ha":643,"o":"m 522 0 l 522 463 b 304 676 522 612 451 676 b 72 491 187 676 76 623 l 175 491 b 307 597 186 570 230 597 b 430 393 435 597 430 491 l 430 379 b 57 169 225 379 57 316 b 231 -15 57 56 118 -15 b 430 87 303 -15 394 18 l 432 87 l 432 0 l 522 0 m 430 300 b 405 166 430 244 427 215 b 254 63 379 106 317 63 b 163 159 200 63 163 104 b 375 300 163 265 294 300 l 430 300 m 496 791 l 496 913 l 374 913 l 374 791 l 496 791 m 257 791 l 257 913 l 134 913 l 134 791 l 257 791 "},"<":{"x_min":76.4375,"x_max":705.28125,"ha":797,"o":"m 705 0 l 705 87 l 169 326 l 705 565 l 705 652 l 76 369 l 76 283 l 705 0 "},"£":{"x_min":44.921875,"x_max":609.78125,"ha":617,"o":"m 585 0 l 585 94 l 242 94 l 242 416 l 400 416 l 400 495 l 242 495 l 242 683 b 364 845 242 770 264 845 b 499 725 436 845 499 804 l 609 725 b 590 804 609 752 602 777 b 363 925 547 893 455 925 b 136 700 216 925 136 851 l 136 495 l 44 495 l 44 416 l 136 416 l 136 0 l 585 0 "},"¹":{"x_min":107.53125,"x_max":294,"ha":489,"o":"m 294 556 l 294 1152 l 231 1152 l 107 1075 l 107 994 l 217 1069 l 217 556 l 294 556 "},"t":{"x_min":47.640625,"x_max":420.578125,"ha":463,"o":"m 415 76 b 352 63 392 66 378 63 b 246 175 277 63 246 104 l 246 581 l 420 581 l 420 661 l 246 661 l 246 875 l 153 815 l 153 661 l 47 661 l 47 581 l 153 581 l 153 155 b 333 -15 153 26 210 -15 b 415 -8 360 -15 387 -12 l 415 76 "},"¬":{"x_min":76.21875,"x_max":705.0625,"ha":797,"o":"m 705 177 l 705 481 l 76 481 l 76 397 l 612 397 l 612 177 l 705 177 "},"ù":{"x_min":103.3125,"x_max":566.140625,"ha":694,"o":"m 566 0 l 566 661 l 473 661 l 473 388 b 291 79 473 284 420 79 b 195 294 184 79 195 220 l 195 661 l 103 661 l 103 188 b 269 -15 103 81 156 -15 b 470 152 379 -15 440 51 l 473 152 l 473 0 l 566 0 m 396 776 l 338 962 l 219 962 l 310 776 l 396 776 "},"W":{"x_min":50,"x_max":1084,"ha":1157,"o":"m 918 0 l 1084 958 l 988 958 l 844 136 l 841 136 l 622 958 l 511 958 l 290 136 l 288 136 l 145 958 l 50 958 l 217 0 l 346 0 l 567 813 l 569 813 l 787 0 l 918 0 "},"ï":{"x_min":-16.328125,"x_max":345.71875,"ha":335,"o":"m 210 0 l 210 661 l 118 661 l 118 0 l 210 0 m 345 791 l 345 913 l 223 913 l 223 791 l 345 791 m 106 791 l 106 913 l -16 913 l -16 791 l 106 791 "},">":{"x_min":76.140625,"x_max":704.96875,"ha":797,"o":"m 704 283 l 704 369 l 76 652 l 76 565 l 613 326 l 76 87 l 76 0 l 704 283 "},"v":{"x_min":11,"x_max":569,"ha":592,"o":"m 349 0 l 569 661 l 469 661 l 303 138 l 300 138 l 110 661 l 11 661 l 255 0 l 349 0 "},"û":{"x_min":103.3125,"x_max":565.8125,"ha":694,"o":"m 565 0 l 565 661 l 473 661 l 473 388 b 291 79 473 284 420 79 b 195 294 184 79 195 220 l 195 661 l 103 661 l 103 188 b 269 -15 103 81 156 -15 b 470 152 379 -15 440 51 l 473 152 l 473 0 l 565 0 m 510 776 l 390 962 l 289 962 l 170 776 l 252 776 l 341 891 l 427 776 l 510 776 "},"Ò":{"x_min":69.53125,"x_max":737.890625,"ha":824,"o":"m 404 -15 b 737 480 679 -15 737 252 b 404 973 737 709 679 973 b 69 480 128 973 69 712 b 404 -15 69 252 128 -15 m 404 75 b 185 481 205 75 185 330 b 404 883 185 631 205 883 b 622 481 600 883 622 631 b 404 75 622 333 600 75 m 433 1073 l 375 1259 l 256 1259 l 347 1073 l 433 1073 "},"&":{"x_min":73.5,"x_max":871.109375,"ha":900,"o":"m 871 72 b 808 63 850 66 828 63 b 710 173 736 63 710 105 l 710 447 l 871 447 l 871 526 l 710 526 l 710 827 l 617 768 l 617 526 l 386 526 b 198 690 279 526 198 572 b 363 845 198 790 270 845 b 495 818 408 845 451 834 l 495 902 b 356 925 450 915 405 925 b 83 694 215 925 83 855 b 234 493 83 587 136 525 l 234 490 b 73 248 119 459 73 363 b 368 -15 73 63 200 -15 b 499 2 416 -15 455 -8 l 499 87 b 374 63 451 72 426 63 b 189 258 259 63 189 144 b 368 447 189 375 253 447 l 617 447 l 617 148 b 779 -15 617 33 664 -15 b 871 -5 811 -15 842 -11 l 871 72 "},"Ð":{"x_min":0,"x_max":711.859375,"ha":797,"o":"m 277 0 b 491 27 348 0 424 4 b 711 481 683 94 711 300 b 341 958 711 741 630 958 l 115 958 l 115 537 l 0 537 l 0 468 l 115 468 l 115 0 l 277 0 m 221 90 l 221 468 l 421 468 l 421 537 l 221 537 l 221 868 l 281 868 b 439 845 334 868 390 866 b 596 480 585 790 596 612 b 462 120 596 359 588 181 b 294 90 412 94 349 90 l 221 90 "},"I":{"x_min":122.5,"x_max":228.671875,"ha":360,"o":"m 228 0 l 228 958 l 122 958 l 122 0 l 228 0 "},"G":{"x_min":69.421875,"x_max":721.390625,"ha":824,"o":"m 609 127 b 436 75 568 90 490 75 b 185 511 212 75 185 337 b 420 883 185 672 224 883 b 601 697 532 883 601 809 l 721 697 b 419 973 721 876 585 973 b 69 511 155 973 69 744 b 445 -15 69 251 138 -15 b 715 76 532 -15 646 16 l 715 541 l 394 541 l 394 451 l 609 451 l 609 127 "},"`":{"x_min":69,"x_max":246,"ha":417,"o":"m 246 776 l 188 962 l 69 962 l 160 776 l 246 776 "},"·":{"x_min":73.5,"x_max":204.171875,"ha":283,"o":"m 204 373 l 204 508 l 73 508 l 73 373 l 204 373 "},"r":{"x_min":108.890625,"x_max":420.578125,"ha":438,"o":"m 201 0 l 201 273 b 420 575 201 416 253 575 l 420 676 b 204 533 317 676 245 629 l 201 533 l 201 661 l 108 661 l 108 0 l 201 0 "},"¿":{"x_min":23.140625,"x_max":461.421875,"ha":565,"o":"m 392 634 l 392 769 l 258 769 l 258 634 l 392 634 m 461 -68 b 284 -115 413 -94 337 -115 b 130 15 204 -115 130 -75 b 210 163 130 81 171 119 l 289 252 b 372 447 366 336 372 327 l 372 511 l 276 511 l 276 469 b 201 300 276 376 259 368 l 132 220 b 23 9 74 154 23 106 b 280 -204 23 -140 148 -204 b 461 -172 340 -204 402 -193 l 461 -68 "},"ý":{"x_min":8,"x_max":573,"ha":592,"o":"m 259 -268 l 573 661 l 474 661 l 299 141 l 296 141 l 107 661 l 8 661 l 255 0 l 164 -268 l 259 -268 m 332 776 l 424 962 l 303 962 l 246 776 l 332 776 "},"x":{"x_min":12,"x_max":593,"ha":617,"o":"m 593 0 l 360 347 l 569 661 l 458 661 l 304 430 l 150 661 l 39 661 l 246 347 l 12 0 l 123 0 l 304 263 l 481 0 l 593 0 "},"è":{"x_min":64.921875,"x_max":544.078125,"ha":617,"o":"m 529 81 b 401 63 485 70 446 63 b 171 354 241 63 171 209 l 171 393 l 544 393 l 544 425 b 318 676 544 572 467 676 b 64 352 127 676 64 525 b 380 -15 64 137 156 -15 b 529 4 431 -15 481 -11 l 529 81 m 177 472 b 314 597 192 545 236 597 b 437 472 384 597 437 545 l 177 472 m 344 776 l 286 962 l 167 962 l 258 776 l 344 776 "},"º":{"x_min":43.5625,"x_max":336.1875,"ha":386,"o":"m 189 391 b 336 580 298 391 336 481 b 189 770 336 677 299 770 b 43 580 80 770 43 677 b 189 391 43 484 80 391 m 189 433 b 98 580 111 433 98 519 b 189 729 98 641 111 729 b 281 580 266 729 281 643 b 189 433 281 519 266 433 "},"Ø":{"x_min":69.21875,"x_max":737.9375,"ha":824,"o":"m 140 -55 l 203 57 b 404 -15 266 1 319 -15 b 737 480 679 -15 737 252 b 646 860 737 608 718 752 l 713 980 l 656 1014 l 597 912 b 404 973 532 960 485 973 b 69 480 127 973 69 712 b 154 112 69 348 82 226 l 81 -20 l 140 -55 m 217 220 b 184 481 191 302 184 397 b 404 882 184 631 205 882 b 547 821 464 882 510 874 l 217 220 m 585 752 b 622 481 615 669 622 570 b 404 75 622 333 600 75 b 253 148 338 75 292 97 l 585 752 "},"÷":{"x_min":74.859375,"x_max":705.0625,"ha":797,"o":"m 453 550 l 453 676 l 328 676 l 328 550 l 453 550 m 705 295 l 705 380 l 74 380 l 74 295 l 705 295 m 453 0 l 453 126 l 328 126 l 328 0 l 453 0 "},"h":{"x_min":108.484375,"x_max":572.625,"ha":694,"o":"m 572 0 l 572 472 b 406 676 572 576 519 676 b 203 508 293 676 236 611 l 201 508 l 201 958 l 108 958 l 108 0 l 201 0 l 201 272 b 384 581 201 375 255 581 b 480 366 492 581 480 440 l 480 0 l 572 0 "},".":{"x_min":70.78125,"x_max":206.890625,"ha":283,"o":"m 206 0 l 206 138 l 70 138 l 70 0 l 206 0 "},";":{"x_min":152.734375,"x_max":297.015625,"ha":360,"o":"m 297 522 l 297 661 l 160 661 l 160 522 l 297 522 m 242 -170 l 290 138 l 170 138 l 152 -170 l 242 -170 "},"f":{"x_min":38.5,"x_max":469.984375,"ha":438,"o":"m 239 0 l 239 581 l 426 581 l 426 661 l 239 661 b 376 883 239 775 229 883 b 469 865 408 883 438 876 l 469 950 b 359 962 433 958 396 962 b 147 752 223 962 147 891 l 147 661 l 38 661 l 38 581 l 147 581 l 147 0 l 239 0 "},"A":{"x_min":12,"x_max":744,"ha":772,"o":"m 744 0 l 440 958 l 311 958 l 12 0 l 118 0 l 209 295 l 544 295 l 637 0 l 744 0 m 515 386 l 237 386 l 375 859 l 378 859 l 515 386 "},"6":{"x_min":85.75,"x_max":639.71875,"ha":694,"o":"m 620 700 b 604 769 620 723 613 747 b 379 895 564 861 473 895 b 85 438 118 895 85 648 b 377 -15 85 223 108 -15 b 639 255 536 -15 639 93 b 401 530 639 409 563 530 b 194 426 321 530 238 497 l 191 426 b 375 816 191 558 190 816 b 502 700 442 816 502 770 l 620 700 m 377 63 b 208 256 265 63 208 150 b 374 451 208 363 261 451 b 533 255 494 451 533 368 b 377 63 533 147 495 63 "},"O":{"x_min":69.421875,"x_max":737.71875,"ha":824,"o":"m 404 -15 b 737 480 679 -15 737 252 b 404 973 737 709 679 973 b 69 480 127 973 69 712 b 404 -15 69 252 127 -15 m 404 75 b 185 481 205 75 185 330 b 404 883 185 631 205 883 b 622 481 600 883 622 631 b 404 75 622 333 600 75 "},"n":{"x_min":108.484375,"x_max":572.625,"ha":694,"o":"m 572 0 l 572 472 b 406 676 572 576 519 676 b 203 508 293 676 236 611 l 201 508 l 201 661 l 108 661 l 108 0 l 201 0 l 201 272 b 384 581 201 375 255 581 b 480 366 492 581 480 440 l 480 0 l 572 0 "},"3":{"x_min":55.8125,"x_max":581.1875,"ha":694,"o":"m 426 462 b 566 661 513 473 566 579 b 321 895 566 812 462 895 b 92 781 230 895 140 866 b 70 701 80 758 70 729 l 185 701 b 328 816 189 784 255 816 b 460 659 423 816 460 751 b 281 498 460 537 394 498 l 281 419 b 475 234 408 419 475 373 b 315 63 475 122 428 63 b 174 183 234 63 185 100 l 55 183 b 321 -15 66 36 193 -15 b 581 225 469 -15 581 62 b 426 459 581 340 543 433 l 426 462 "},"9":{"x_min":53.078125,"x_max":605.703125,"ha":694,"o":"m 499 454 b 315 63 499 320 502 63 b 191 181 246 63 191 111 l 70 181 b 87 112 70 158 77 134 b 313 -15 126 19 219 -15 b 605 441 574 -15 605 230 b 315 895 605 656 582 895 b 53 626 156 895 53 787 b 291 350 53 470 126 350 b 496 454 371 350 449 386 l 499 454 m 317 429 b 159 626 196 429 159 515 b 315 816 159 733 200 816 b 484 625 427 816 484 730 b 317 429 484 519 430 429 "},"l":{"x_min":117.0625,"x_max":209.609375,"ha":335,"o":"m 209 0 l 209 958 l 117 958 l 117 0 l 209 0 "},"¤":{"x_min":88.8125,"x_max":698.1875,"ha":821,"o":"m 643 184 b 698 241 661 205 677 223 b 605 330 666 269 634 301 b 658 491 639 379 658 431 b 605 652 658 545 642 602 b 698 742 634 684 666 713 b 643 799 677 760 661 778 l 551 706 b 393 760 507 744 442 760 b 234 706 345 760 288 746 b 143 799 203 738 174 770 b 88 742 125 778 109 760 b 181 652 120 713 150 684 b 128 491 147 608 128 551 b 181 330 128 431 150 376 b 88 241 150 301 120 269 b 143 184 109 223 125 205 b 234 277 174 213 203 245 b 393 222 287 234 345 222 b 552 277 451 222 509 242 l 643 184 m 393 299 b 205 492 290 299 205 387 b 394 683 205 594 286 683 b 581 492 487 683 581 608 b 393 299 581 387 496 299 "},"4":{"x_min":54.4375,"x_max":660.140625,"ha":694,"o":"m 510 0 l 510 247 l 660 247 l 660 341 l 510 341 l 510 880 l 401 880 l 54 331 l 54 247 l 408 247 l 408 0 l 510 0 m 408 341 l 155 341 l 405 759 l 408 759 l 408 341 "},"p":{"x_min":108.890625,"x_max":594.8125,"ha":668,"o":"m 201 -297 l 201 108 l 204 108 b 374 -15 230 26 291 -15 b 594 336 551 -15 594 193 b 372 676 594 490 559 676 b 204 548 294 676 225 626 l 201 548 l 201 661 l 108 661 l 108 -297 l 201 -297 m 351 63 b 201 333 228 63 201 240 b 353 597 201 426 235 597 b 488 354 472 597 488 445 b 351 63 488 262 477 63 "},"à":{"x_min":57.140625,"x_max":522.6875,"ha":643,"o":"m 522 0 l 522 463 b 304 676 522 612 451 676 b 72 491 187 676 76 623 l 175 491 b 307 597 186 570 230 597 b 430 393 435 597 430 491 l 430 379 b 57 169 225 379 57 316 b 231 -15 57 56 118 -15 b 430 87 303 -15 394 18 l 432 87 l 432 0 l 522 0 m 430 300 b 405 166 430 244 427 215 b 254 63 379 106 317 63 b 163 159 200 63 163 104 b 375 300 163 265 294 300 l 430 300 m 358 776 l 300 962 l 181 962 l 272 776 l 358 776 "},"Ü":{"x_min":107.53125,"x_max":699.609375,"ha":824,"o":"m 593 329 b 398 75 593 181 570 75 b 213 329 235 75 213 190 l 213 958 l 107 958 l 107 308 b 394 -15 107 112 189 -15 b 699 308 617 -15 699 95 l 699 958 l 593 958 l 593 329 m 585 1088 l 585 1211 l 462 1211 l 462 1088 l 585 1088 m 345 1088 l 345 1211 l 223 1211 l 223 1088 l 345 1088 "},"ó":{"x_min":62.1875,"x_max":593.03125,"ha":668,"o":"m 326 -15 b 593 329 529 -15 593 148 b 326 676 593 506 529 676 b 62 329 124 676 62 506 b 326 -15 62 150 124 -15 m 326 63 b 168 330 191 63 168 225 b 326 597 168 436 191 597 b 486 330 461 597 486 437 b 326 63 486 223 462 63 m 369 776 l 461 962 l 341 962 l 284 776 l 369 776 "}}}
